<svg width="60" height="60" viewBox="0 0 60 60" fill="none" xmlns="http://www.w3.org/2000/svg">
<circle cx="30" cy="30" r="30" fill="#5051DB" fill-opacity="0.04"/>
<circle cx="30" cy="30" r="29" stroke="#5051DB" stroke-opacity="0.08" stroke-width="2"/>
<path d="M51.9818 28.8H49.1527C49.0591 26.8249 48.6733 24.9286 48.0317 23.1492L50.6429 22.067C51.1158 21.8714 51.3402 21.3289 51.1445 20.8551C50.9489 20.3812 50.4036 20.1587 49.9326 20.3534L47.3204 21.4356C46.4896 19.6793 45.4075 18.0714 44.1139 16.6499L46.1187 14.6451C46.4813 14.2826 46.4813 13.6956 46.1187 13.334C45.7561 12.9714 45.1701 12.9714 44.8075 13.334L42.8028 15.3387C41.3822 14.0461 39.7734 12.9631 38.018 12.1322L39.1002 9.51917C39.2958 9.04626 39.0714 8.50381 38.5985 8.30816C38.1284 8.11343 37.5822 8.33597 37.3866 8.81074L36.3054 11.421C34.5259 10.7793 32.6297 10.3936 30.6536 10.2999V7.47268C30.6536 6.96083 30.2382 6.54541 29.7264 6.54541C29.2145 6.54541 28.7991 6.96083 28.7991 7.47268V10.3018C26.824 10.3954 24.9277 10.7812 23.1483 11.4229L22.068 8.81167C21.8724 8.33783 21.3299 8.11436 20.857 8.30908C20.3832 8.50474 20.1588 9.04719 20.3544 9.5201L21.4365 12.1322C19.6803 12.9631 18.0724 14.0461 16.6509 15.3387L14.6461 13.334C14.2836 12.9714 13.6975 12.9714 13.335 13.334C12.9724 13.6965 12.9724 14.2826 13.335 14.6451L15.3397 16.6499C14.0471 18.0714 12.9641 19.6793 12.1332 21.4356L9.52202 20.3534C9.04911 20.1578 8.50665 20.3812 8.31007 20.8551C8.11442 21.328 8.33882 21.8704 8.81173 22.067L11.422 23.1492C10.7803 24.9286 10.3946 26.8239 10.3009 28.8H7.47274C6.96089 28.8 6.54547 29.2154 6.54547 29.7272C6.54547 30.2391 6.96089 30.6545 7.47274 30.6545H10.3019C10.3955 32.6305 10.7813 34.5268 11.4229 36.3072L8.81265 37.3874C8.33974 37.5831 8.11442 38.1255 8.31007 38.5994C8.45751 38.9564 8.80338 39.1715 9.16687 39.1715C9.28463 39.1715 9.40518 39.1492 9.52109 39.101L12.1341 38.0189C12.965 39.7752 14.0471 41.383 15.3397 42.8036L13.335 44.8084C12.9724 45.171 12.9724 45.757 13.335 46.1196C13.5158 46.3004 13.7532 46.3912 13.9905 46.3912C14.2279 46.3912 14.4653 46.3004 14.6461 46.1196L16.6509 44.1148C18.0724 45.4083 19.6812 46.4905 21.4365 47.3213L20.3544 49.9334C20.1588 50.4073 20.3832 50.9497 20.8561 51.1454C20.972 51.1936 21.0925 51.2158 21.2103 51.2158C21.5747 51.2158 21.9197 51.0007 22.0671 50.6437L23.1483 48.0325C24.9277 48.6742 26.8231 49.0599 28.7991 49.1536V51.9818C28.7991 52.4946 29.2145 52.909 29.7264 52.909C30.2382 52.909 30.6536 52.4946 30.6536 51.9818V49.1527C32.6297 49.059 34.525 48.6733 36.3054 48.0316L37.3866 50.6419C37.534 50.9989 37.8799 51.214 38.2434 51.214C38.3621 51.214 38.4826 51.1917 38.5985 51.1435C39.0714 50.9479 39.2958 50.4054 39.1002 49.9316L38.018 47.3194C39.7743 46.4886 41.3822 45.4065 42.8028 44.1139L44.8075 46.1186C44.9883 46.2994 45.2257 46.3903 45.4631 46.3903C45.7005 46.3903 45.9379 46.2994 46.1187 46.1186C46.4813 45.7561 46.4813 45.17 46.1187 44.8075L44.1139 42.8027C45.4065 41.3821 46.4896 39.7733 47.3195 38.018L49.9326 39.0992C50.0485 39.1474 50.169 39.1696 50.2877 39.1696C50.6521 39.1696 50.9971 38.9545 51.1445 38.5975C51.3402 38.1237 51.1158 37.5812 50.6429 37.3856L48.0317 36.3044C48.6733 34.5249 49.0591 32.6296 49.1527 30.6536H51.9818C52.4946 30.6536 52.9091 30.2382 52.9091 29.7263C52.9091 29.2144 52.4946 28.8 51.9818 28.8ZM29.7273 47.3454C20.0123 47.3454 12.1091 39.4423 12.1091 29.7272C12.1091 20.0122 20.0123 12.109 29.7273 12.109C39.4423 12.109 47.3455 20.0122 47.3455 29.7272C47.3455 39.4423 39.4423 47.3454 29.7273 47.3454Z" fill="#5051DB"/>
<path d="M29.7273 26.9456C32.2838 26.9456 34.3637 24.8657 34.3637 22.3092C34.3637 19.7527 32.2838 17.6729 29.7273 17.6729C27.1708 17.6729 25.0909 19.7527 25.0909 22.3092C25.0909 24.8657 27.1708 26.9456 29.7273 26.9456ZM29.7273 19.5274C31.261 19.5274 32.5091 20.7755 32.5091 22.3092C32.5091 23.8429 31.261 25.091 29.7273 25.091C28.1936 25.091 26.9455 23.8429 26.9455 22.3092C26.9455 20.7755 28.1936 19.5274 29.7273 19.5274Z" fill="#5051DB"/>
<path d="M33.4364 28.8H26.0182C23.4617 28.8 21.3818 30.8799 21.3818 33.4364V39C21.3818 39.5128 21.7973 39.9273 22.3091 39.9273C22.821 39.9273 23.2364 39.5128 23.2364 39V33.4364C23.2364 31.9027 24.4845 30.6546 26.0182 30.6546H33.4364C34.9701 30.6546 36.2182 31.9027 36.2182 33.4364V39C36.2182 39.5128 36.6327 39.9273 37.1455 39.9273C37.6583 39.9273 38.0727 39.5128 38.0727 39V33.4364C38.0727 30.8799 35.9929 28.8 33.4364 28.8Z" fill="#5051DB"/>
</svg>
