<svg width="124" height="48" viewBox="0 0 124 48" fill="none" xmlns="http://www.w3.org/2000/svg">
<path d="M26.5062 39.6303V7.35063C27.0817 6.72325 27.4621 5.94194 27.6012 5.10202C27.7402 4.26209 27.6317 3.39987 27.289 2.62053C26.9464 1.84119 26.3843 1.17843 25.6714 0.713105C24.9584 0.247778 24.1255 0 23.2741 0C22.4228 0 21.5898 0.247778 20.8769 0.713105C20.164 1.17843 19.6019 1.84119 19.2592 2.62053C18.9166 3.39987 18.8081 4.26209 18.9471 5.10202C19.0861 5.94194 19.4666 6.72325 20.0421 7.35063V39.6303C19.4472 40.2614 19.05 41.0529 18.8997 41.9071C18.7494 42.7613 18.8524 43.6408 19.1961 44.4371C19.5398 45.2334 20.1091 45.9117 20.8338 46.3882C21.5585 46.8647 22.4068 47.1187 23.2741 47.1187C24.1415 47.1187 24.9898 46.8647 25.7145 46.3882C26.4392 45.9117 27.0085 45.2334 27.3522 44.4371C27.6959 43.6408 27.7989 42.7613 27.6486 41.9071C27.4983 41.0529 27.1011 40.2614 26.5062 39.6303V39.6303ZM23.2748 2.92631C23.5639 2.92631 23.8466 3.01205 24.087 3.17269C24.3274 3.33333 24.5148 3.56166 24.6254 3.8288C24.7361 4.09594 24.765 4.38989 24.7086 4.67348C24.6522 4.95708 24.513 5.21757 24.3085 5.42203C24.1041 5.62649 23.8436 5.76573 23.56 5.82214C23.2764 5.87855 22.9824 5.8496 22.7153 5.73894C22.4482 5.62829 22.2198 5.44091 22.0592 5.20049C21.8985 4.96007 21.8128 4.67742 21.8128 4.38827C21.8126 4.19623 21.8503 4.00605 21.9238 3.82861C21.9972 3.65116 22.1048 3.48993 22.2406 3.35414C22.3764 3.21835 22.5377 3.11067 22.7151 3.03726C22.8925 2.96385 23.0827 2.92614 23.2748 2.92631V2.92631ZM23.2748 44.1538C22.9818 44.1541 22.6954 44.0674 22.4517 43.9048C22.2081 43.7422 22.0181 43.511 21.9059 43.2404C21.7937 42.9698 21.7643 42.672 21.8213 42.3847C21.8784 42.0974 22.0195 41.8335 22.2266 41.6264C22.4337 41.4192 22.6977 41.2782 22.985 41.2211C23.2723 41.164 23.5701 41.1934 23.8407 41.3056C24.1113 41.4179 24.3425 41.6078 24.5051 41.8515C24.6677 42.0952 24.7543 42.3816 24.7541 42.6745C24.7541 43.0668 24.5982 43.4431 24.3208 43.7205C24.0434 43.998 23.6671 44.1538 23.2748 44.1538Z" fill="#5051DB"/>
<path d="M20.0396 23.6963C20.0396 23.7596 20.0396 23.8203 20.0396 23.8811C20.0396 23.9418 20.0396 23.9828 20.0297 24.0336C20.0291 24.0406 20.0291 24.0477 20.0297 24.0547L20.0148 24.2084C20.0148 24.2456 20.0074 24.2828 20.0024 24.32C20.0031 24.325 20.0031 24.33 20.0024 24.3349C20.0024 24.3572 20.0024 24.3796 19.995 24.4019C19.995 24.4453 19.9838 24.4874 19.9764 24.5259C19.9689 24.5742 19.9603 24.6214 19.9516 24.6697C19.9429 24.7181 19.9305 24.7863 19.9193 24.8458L19.8896 24.981C19.8673 25.0789 19.8412 25.1781 19.8139 25.2748L19.7991 25.3306C19.7867 25.374 19.7743 25.4162 19.7606 25.4546C19.747 25.4931 19.7371 25.529 19.7247 25.5662C19.7147 25.5997 19.7023 25.632 19.6924 25.663L19.6565 25.7634L19.592 25.9184C19.5734 25.9668 19.5535 26.0126 19.5337 26.061C19.5139 26.1094 19.5002 26.1379 19.4829 26.1763C19.4655 26.2148 19.463 26.2234 19.4519 26.247C19.3692 26.428 19.2778 26.6045 19.1778 26.7765C19.1543 26.8174 19.1295 26.8596 19.1034 26.9005C19.0774 26.9414 19.0613 26.9699 19.0389 27.0059L19.0117 27.048C18.9869 27.0865 18.9621 27.1262 18.936 27.1634C18.91 27.2006 18.8901 27.2316 18.8653 27.265L18.8356 27.306C18.8095 27.3432 18.7835 27.3804 18.7562 27.4163C18.7079 27.4808 18.6583 27.5403 18.6074 27.6073C18.5892 27.6304 18.5694 27.654 18.5479 27.678C18.4921 27.7449 18.4363 27.8094 18.378 27.8739L18.3483 27.9061L18.259 28.0028C18.1821 28.0822 18.104 28.1603 18.0234 28.2372L17.9515 28.3042C17.9056 28.3463 17.8572 28.3885 17.8101 28.4282C17.763 28.4678 17.7493 28.4815 17.7183 28.5063C17.6687 28.5484 17.6204 28.5869 17.5708 28.6303C17.5212 28.6737 17.4889 28.6935 17.4468 28.7233C17.4046 28.753 17.3488 28.7964 17.3005 28.8299L17.1926 28.9043C17.1579 28.9291 17.1219 28.9527 17.0859 28.9762C16.9958 29.0341 16.9041 29.0899 16.8107 29.1436L16.6978 29.2081L16.6296 29.2453C16.5651 29.28 16.4982 29.3135 16.4312 29.347C16.4052 29.3606 16.3804 29.3718 16.3531 29.3842L16.2601 29.4288C16.2365 29.4388 16.2142 29.4499 16.1907 29.4586C16.1101 29.4958 16.0282 29.5293 15.9427 29.5615C15.8955 29.5814 15.8472 29.5987 15.7988 29.6161L15.6748 29.6595L15.6116 29.6806L15.4963 29.7178L15.3723 29.755H15.3611L15.2991 29.7723L15.185 29.8033L15.0982 29.8244L15.066 29.8318L14.9866 29.8504C14.9097 29.8678 14.8316 29.8839 14.7523 29.8988L14.6779 29.9112C14.5985 29.9261 14.5179 29.9372 14.4373 29.9484L14.3431 29.9608L14.2191 29.9744L14.0827 29.9856H14.0182C13.9363 29.993 13.8545 29.9968 13.7702 29.998H13.7082H13.418H13.356C13.2729 29.998 13.1911 29.998 13.108 29.9856H13.0435L12.9096 29.9744L12.7856 29.9608L12.6914 29.9484C12.6095 29.9372 12.5302 29.9261 12.4508 29.9112L12.3764 29.8988C12.2938 29.8839 12.2156 29.8678 12.1421 29.8504C12.1148 29.8442 12.0887 29.8393 12.0627 29.8318C12.0518 29.8301 12.041 29.8276 12.0305 29.8244L11.9437 29.8033L11.8296 29.7723L11.7676 29.755L11.78 29.7624C11.7403 29.75 11.6994 29.7388 11.656 29.7252L11.5407 29.688L11.4774 29.6669L11.3534 29.6235C11.3051 29.6062 11.2579 29.5888 11.2096 29.569C11.1265 29.5367 11.0447 29.5032 10.9616 29.466L10.8934 29.4363L10.8004 29.3916C10.7731 29.3792 10.7471 29.3681 10.7223 29.3544C10.6553 29.321 10.5883 29.2875 10.5239 29.2528L10.4557 29.2156L10.3428 29.1511C10.2502 29.0973 10.1585 29.0415 10.0675 28.9837C10.0303 28.9601 9.99562 28.9366 9.9609 28.9118C9.92618 28.887 9.88774 28.8634 9.85302 28.8374C9.8183 28.8113 9.75506 28.7679 9.7067 28.7307C9.65834 28.6935 9.62486 28.67 9.5827 28.6377C9.54054 28.6055 9.4835 28.5596 9.43514 28.5137C9.38678 28.4678 9.37314 28.4629 9.34338 28.4356C9.31362 28.4083 9.2479 28.3525 9.20078 28.3116C9.17846 28.288 9.15366 28.267 9.1301 28.2446C9.0495 28.1678 8.97014 28.0896 8.8945 28.0103L8.80522 27.9136L8.77546 27.8813C8.71718 27.8168 8.66014 27.7573 8.60434 27.6854L8.54606 27.6147C8.49398 27.5515 8.44562 27.4907 8.39726 27.4238L8.31666 27.3134L8.28814 27.2725C8.26334 27.239 8.24102 27.2043 8.21746 27.1708C8.1939 27.1373 8.16662 27.0939 8.14058 27.0555C8.1319 27.0406 8.12198 27.027 8.1133 27.0133C8.09222 26.9774 8.07114 26.9439 8.04882 26.9079L7.97566 26.7839C7.87646 26.612 7.78511 26.4355 7.70162 26.2544L7.66938 26.1838L7.61854 26.0684C7.59994 26.0201 7.5801 25.9742 7.56274 25.9258C7.54538 25.8775 7.52554 25.8353 7.50942 25.7894C7.4933 25.7436 7.48462 25.7225 7.4747 25.689C7.46478 25.6555 7.45114 25.6258 7.44122 25.5923C7.42882 25.5551 7.41518 25.5179 7.40526 25.4807C7.39534 25.4435 7.37798 25.3964 7.36682 25.3567C7.36682 25.3381 7.35566 25.3195 7.3507 25.3009C7.32342 25.2042 7.29862 25.105 7.2763 25.007L7.24654 24.8718C7.23538 24.8123 7.22298 24.754 7.21306 24.6958C7.20314 24.6375 7.19694 24.6003 7.1895 24.5519C7.18206 24.5073 7.17586 24.4651 7.1709 24.4279C7.1709 24.4056 7.1709 24.3833 7.16222 24.361C7.16155 24.356 7.16155 24.351 7.16222 24.3461C7.16222 24.3089 7.1523 24.2717 7.14858 24.2345C7.14486 24.1973 7.1399 24.1328 7.13494 24.0807C7.13554 24.0737 7.13554 24.0666 7.13494 24.0596C7.13494 24.0088 7.1275 23.958 7.12502 23.9071C7.12254 23.8563 7.12502 23.7831 7.12502 23.7224C7.12502 23.6616 7.12502 23.6232 7.12502 23.5736V17.0822H0.648499V23.5475C0.648499 23.617 0.648499 23.6864 0.648499 23.7558C0.648499 23.8253 0.648499 23.9146 0.648499 23.9939V24.1588C0.648499 24.1663 0.648499 24.1737 0.648499 24.1824C0.648499 24.1911 0.648499 24.2283 0.648499 24.2518C0.648499 24.3138 0.648499 24.3758 0.659659 24.4366C0.670819 24.4974 0.670819 24.5842 0.677019 24.6573C0.683219 24.7305 0.688179 24.7813 0.693139 24.8396C0.701819 24.9264 0.711739 25.0144 0.722899 25.1025C0.734059 25.1905 0.739019 25.2414 0.748939 25.3108C0.758859 25.3802 0.767539 25.441 0.777459 25.5055C0.778057 25.5125 0.778057 25.5195 0.777459 25.5266C0.787379 25.5886 0.797299 25.6506 0.809699 25.715C0.823339 25.8105 0.841939 25.9048 0.860539 25.999C0.870459 26.0548 0.881619 26.1118 0.892779 26.1664C0.903939 26.221 0.921299 26.3065 0.938659 26.3772C0.952299 26.4454 0.968419 26.5136 0.984539 26.5806C1.0019 26.65 1.01802 26.7194 1.03538 26.7876L1.11598 27.0133C1.13458 27.079 1.15194 27.1373 1.17054 27.208C1.17399 27.2165 1.17689 27.2252 1.17922 27.234C1.19658 27.2936 1.21518 27.3518 1.23378 27.4114C1.25238 27.4709 1.27594 27.5465 1.2995 27.6147C1.32306 27.6829 1.34662 27.7598 1.3739 27.833C1.40118 27.9061 1.41606 27.957 1.43838 28.014C1.4607 28.071 1.48426 28.138 1.50782 28.1975V28.2124C1.53386 28.2781 1.5599 28.3438 1.58718 28.4096C1.63802 28.5336 1.69258 28.6576 1.74838 28.789C1.75052 28.7957 1.753 28.8024 1.75582 28.8088C1.7831 28.8684 1.81038 28.9328 1.8389 28.9886C1.86742 29.0444 1.89966 29.1188 1.93066 29.1833L2.00754 29.3383C2.04722 29.4189 2.08938 29.4983 2.13154 29.5789C2.15634 29.6272 2.18362 29.6768 2.2109 29.7252C2.24562 29.7922 2.28158 29.8579 2.31878 29.9224L2.4155 30.0898C2.42542 30.1059 2.43534 30.1232 2.4465 30.1394L2.53206 30.282C2.5705 30.3452 2.61018 30.406 2.65606 30.4729C2.70194 30.5399 2.72054 30.5746 2.75402 30.6254C2.75636 30.6286 2.75843 30.6319 2.76022 30.6354C2.79494 30.6874 2.82842 30.7383 2.86438 30.7904C2.93506 30.897 3.00822 31.0012 3.08386 31.1041C3.10742 31.1376 3.13098 31.1698 3.15578 31.202C3.22522 31.2988 3.29962 31.3942 3.37278 31.4897C3.4137 31.543 3.45462 31.5939 3.49678 31.6447C3.53894 31.6956 3.56498 31.7315 3.60094 31.7687C3.6369 31.8059 3.65674 31.8369 3.68526 31.8704C3.7485 31.946 3.80926 32.0204 3.87746 32.0936C3.94566 32.1668 4.00766 32.2387 4.07338 32.3106C4.1205 32.3614 4.16638 32.4098 4.21474 32.4594C4.22945 32.4768 4.24519 32.4934 4.26186 32.509C4.29782 32.5462 4.33378 32.5846 4.37222 32.6218L4.4553 32.7074C4.5607 32.8103 4.6661 32.9132 4.77398 33.0137L4.92278 33.1501C4.95998 33.1836 4.99718 33.217 5.03562 33.2493C5.07406 33.2815 5.1001 33.3063 5.13234 33.3336C5.16458 33.3609 5.19186 33.3857 5.22286 33.4117C5.33322 33.5047 5.44606 33.5965 5.5589 33.687C5.6023 33.7205 5.64446 33.7552 5.6829 33.7874L5.73994 33.8321L5.83046 33.9003L5.95446 33.9933C6.0983 34.0999 6.24586 34.2016 6.39466 34.2996L6.5075 34.3752C6.54098 34.3975 6.57446 34.4198 6.60794 34.4397C6.64142 34.4595 6.67118 34.4806 6.70342 34.5004C6.73566 34.5203 6.76542 34.5401 6.79766 34.56L6.90554 34.6257L7.1027 34.741C7.19198 34.7943 7.2825 34.8452 7.3755 34.8948C7.40898 34.9146 7.44494 34.9332 7.4809 34.9518C7.54786 34.989 7.61606 35.0237 7.68302 35.0584L7.86778 35.1514L8.04138 35.2345C8.0947 35.2606 8.14802 35.2854 8.20382 35.3089L8.38362 35.3908L8.39726 35.397L8.57706 35.4738H8.58698C8.64402 35.4986 8.70354 35.5222 8.76182 35.5458L8.78662 35.5544C8.83746 35.5768 8.89202 35.5966 8.9441 35.6164L9.0061 35.64L9.11522 35.6797C9.1673 35.7008 9.22062 35.7194 9.27394 35.738H9.28014C9.34338 35.7615 9.40414 35.7838 9.4711 35.8037L9.50334 35.8136L9.62734 35.8558L9.72654 35.8868L9.85922 35.9264L9.92246 35.9463L10.0985 35.9959H10.1246C10.1928 36.0157 10.2635 36.0343 10.3329 36.0517L10.5276 36.1013C10.5921 36.1162 10.6516 36.1323 10.7235 36.1459L10.9194 36.1893L11.036 36.2129L11.1959 36.2426C11.2517 36.255 11.3088 36.2637 11.3671 36.2736L11.4489 36.2873L11.594 36.3108L11.656 36.3344C11.7043 36.3418 11.7527 36.3505 11.8023 36.3555L11.8965 36.3691L11.966 36.3778L12.1371 36.3976C12.1954 36.4038 12.2537 36.4113 12.3119 36.4162C12.3702 36.4212 12.4297 36.4274 12.488 36.4311L12.6418 36.4435C12.6765 36.4435 12.7125 36.4435 12.7484 36.451L12.9233 36.4609C12.9716 36.4609 13.0212 36.4671 13.0708 36.4671C13.2395 36.4745 13.4093 36.477 13.5817 36.477C13.7541 36.477 13.9227 36.477 14.0926 36.4671C14.1422 36.4671 14.1905 36.4671 14.2401 36.4609L14.4137 36.451C14.4497 36.451 14.4869 36.451 14.5216 36.4435L14.6741 36.4311C14.7337 36.4311 14.7981 36.4224 14.8515 36.4162L15.0263 36.3976L15.1974 36.3778L15.2669 36.3691L15.3611 36.3555C15.4095 36.3555 15.4591 36.3418 15.5074 36.3344L15.5521 36.3282L15.6996 36.3046L15.7802 36.291C15.8385 36.2811 15.8943 36.2724 15.9513 36.26L16.1113 36.2302L16.2266 36.2067L16.4238 36.1633C16.4895 36.1496 16.5552 36.1335 16.6197 36.1186L16.8144 36.069L17.0227 36.0132H17.0487L17.2248 35.9636L17.2881 35.9438L17.4207 35.9041L17.5187 35.8731L17.6427 35.831L17.6737 35.821C17.7369 35.8012 17.7977 35.7789 17.8659 35.7553C17.9205 35.7367 17.9725 35.7181 18.0259 35.697L18.135 35.6574L18.1957 35.6338C18.2503 35.614 18.3024 35.5941 18.3545 35.5718L18.3793 35.5631L18.5541 35.4912H18.564L18.7438 35.4143L18.7562 35.4081L18.9385 35.3263C18.9918 35.3027 19.0464 35.2779 19.0997 35.2519L19.2733 35.1688L19.4581 35.0758C19.5263 35.0411 19.592 35.0064 19.6602 34.9692L19.7656 34.9121C19.8573 34.8625 19.9491 34.8117 20.0384 34.7584V23.5475C20.0421 23.5984 20.0421 23.6467 20.0396 23.6963Z" fill="#3984F5"/>
<path d="M7.75739 15.1428L7.75739 7.38538L-5.48363e-05 7.38538L-5.48363e-05 15.1428H7.75739Z" fill="#5051DB"/>
<path d="M41.4928 12.7992V23.426C41.4928 24.9198 41.8582 26.0283 42.589 26.7517C43.3198 27.475 44.3341 27.8367 45.632 27.8367C46.9183 27.8367 47.9264 27.475 48.6563 26.7517C49.3863 26.0283 49.7517 24.9198 49.7525 23.426V12.7992H51.956V23.4024C51.956 24.7995 51.6749 25.9763 51.1128 26.9327C50.5847 27.8561 49.791 28.5993 48.8349 29.0655C47.825 29.5256 46.7281 29.7637 45.6183 29.7637C44.5085 29.7637 43.4117 29.5256 42.4018 29.0655C41.4475 28.6012 40.6573 27.8572 40.1363 26.9327C39.5824 25.9771 39.3055 24.8003 39.3055 23.4024V12.7992H41.4928Z" fill="#5051DB"/>
<path d="M59.7456 16.9321C60.6054 16.4262 61.6056 16.1732 62.7464 16.1732C63.8675 16.1599 64.9711 16.4513 65.9394 17.0164C66.897 17.5821 67.6774 18.4041 68.1925 19.3898C68.7381 20.4107 69.0109 21.5957 69.0109 22.9449C69.0109 24.2783 68.7381 25.467 68.1925 26.5111C67.6849 27.5166 66.9049 28.3592 65.9415 28.9428C64.9782 29.5264 63.8702 29.8276 62.744 29.812C61.7015 29.8332 60.6729 29.5709 59.768 29.0531C58.9631 28.5993 58.2877 27.9471 57.8063 27.1584V35.8582H55.614V16.3902H57.8063V18.8243C58.2753 18.0342 58.9442 17.3816 59.7456 16.9321V16.9321ZM66.1676 20.3384C65.7978 19.6319 65.2332 19.0462 64.5407 18.6507C63.8531 18.2645 63.0763 18.0653 62.2876 18.0729C61.5043 18.0668 60.7336 18.2706 60.0556 18.6631C59.3607 19.07 58.793 19.6626 58.4164 20.3743C57.9949 21.1716 57.7836 22.0631 57.8026 22.9647C57.782 23.8744 57.9932 24.7743 58.4164 25.5799C58.7927 26.2915 59.3605 26.8838 60.0556 27.2898C60.7333 27.6829 61.5042 27.8868 62.2876 27.8801C63.0779 27.8883 63.856 27.6844 64.5407 27.2898C65.2342 26.8857 65.7984 26.2926 66.1676 25.5799C66.5694 24.8359 66.7702 23.9563 66.7702 22.9411C66.7702 21.95 66.5694 21.0824 66.1676 20.3384Z" fill="#5051DB"/>
<path d="M74.5773 18.1969V25.9804C74.5773 26.6227 74.7141 27.0774 74.9878 27.3444C75.2614 27.6114 75.7351 27.7441 76.4088 27.7425H78.0208V29.6025H76.0479C74.827 29.6025 73.911 29.3214 73.3001 28.7593C72.6892 28.1971 72.3842 27.2733 72.385 25.9879V18.1969H70.68V16.3903H72.3912V13.0646H74.5835V16.3903H78.0295V18.1969H74.5773Z" fill="#5051DB"/>
<path d="M80.7464 13.811C80.5332 13.6031 80.3873 13.3361 80.3276 13.0445C80.2678 12.7529 80.2968 12.45 80.411 12.175C80.5252 11.9001 80.7192 11.6657 80.968 11.5022C81.2168 11.3387 81.5089 11.2536 81.8066 11.2578C81.9982 11.2545 82.1885 11.2913 82.3651 11.3658C82.5417 11.4404 82.7007 11.551 82.8321 11.6906C83.1028 11.9772 83.2537 12.3565 83.2537 12.7508C83.2537 13.1451 83.1028 13.5244 82.8321 13.811C82.7011 13.9508 82.5423 14.0617 82.3659 14.1364C82.1895 14.2111 81.9994 14.2481 81.8078 14.245C81.6106 14.2494 81.4145 14.2131 81.2319 14.1384C81.0493 14.0638 80.884 13.9523 80.7464 13.811V13.811ZM82.8668 16.3902V29.595H80.6744V16.3902H82.8668Z" fill="#5051DB"/>
<path d="M105.229 16.787C106.041 17.2214 106.705 17.8885 107.136 18.7028C107.601 19.5551 107.834 20.5914 107.834 21.8115V29.595H105.662V22.1252C105.662 20.8084 105.336 19.8002 104.686 19.1009C104.035 18.4015 103.157 18.0522 102.052 18.0531C100.91 18.0531 100 18.4185 99.324 19.1492C98.6478 19.88 98.3105 20.9377 98.3122 22.3224V29.6H96.1434V22.1252C96.1434 20.8084 95.8181 19.8002 95.1675 19.1009C94.517 18.4015 93.6374 18.0522 92.5288 18.0531C91.388 18.0531 90.4787 18.4185 89.8008 19.1492C89.123 19.88 88.7873 20.9377 88.7939 22.3224V29.6H86.6016V16.3902H88.7939V18.2936C89.2184 17.6123 89.8231 17.0617 90.5411 16.7027C91.2933 16.3295 92.1232 16.1399 92.9628 16.1497C93.992 16.1282 95.0078 16.3853 95.9029 16.8937C96.7593 17.3975 97.4276 18.1673 97.8063 19.086C98.1564 18.1782 98.8014 17.4144 99.6377 16.9172C100.496 16.4021 101.48 16.1355 102.481 16.1472C103.436 16.1304 104.38 16.3502 105.229 16.787V16.787Z" fill="#5051DB"/>
<path d="M111.421 19.3898C111.936 18.4037 112.716 17.5815 113.674 17.0164C114.643 16.4512 115.746 16.1597 116.867 16.1732C118.025 16.1732 119.029 16.4212 119.879 16.9172C120.673 17.3588 121.331 18.0088 121.783 18.7971V16.3902H124V29.595H121.783V27.1373C121.32 27.938 120.65 28.5997 119.843 29.0531C118.984 29.559 117.983 29.812 116.843 29.812C115.722 29.8264 114.62 29.5256 113.662 28.944C112.705 28.3558 111.929 27.5137 111.421 26.5111C110.875 25.467 110.604 24.2775 110.608 22.9424C110.608 21.5941 110.879 20.4099 111.421 19.3898ZM121.18 20.3657C120.808 19.6585 120.245 19.0699 119.555 18.6669C118.868 18.282 118.095 18.0788 117.309 18.0767C116.522 18.0745 115.748 18.2734 115.06 18.6545C114.374 19.0534 113.815 19.6386 113.448 20.3421C113.042 21.0836 112.84 21.9504 112.84 22.9424C112.84 23.9542 113.041 24.8338 113.443 25.5811C113.809 26.291 114.368 26.8835 115.055 27.2911C115.737 27.6885 116.514 27.8933 117.304 27.8838C118.094 27.8916 118.872 27.6878 119.557 27.2936C120.25 26.889 120.814 26.296 121.183 25.5836C121.599 24.7758 121.806 23.8768 121.785 22.9684C121.784 21.9731 121.582 21.1055 121.18 20.3657Z" fill="#5051DB"/>
</svg>
