<svg width="66" height="39" viewBox="0 0 66 39" fill="none" xmlns="http://www.w3.org/2000/svg">
<path d="M33.0555 0.199829C38.8425 0.199829 43.5166 4.87391 43.5166 10.7721C43.5166 16.5591 38.8425 21.2332 33.0555 21.2332C27.1573 21.2332 22.4832 16.5591 22.4832 10.7721C22.4832 4.87391 27.1573 0.199829 33.0555 0.199829ZM33.0555 2.42558C28.3815 2.42558 24.709 6.09807 24.709 10.7721C24.709 15.3349 28.3815 19.0074 33.0555 19.0074C37.6183 19.0074 41.2908 15.3349 41.2908 10.7721C41.2908 6.09807 37.6183 2.42558 33.0555 2.42558Z" fill="#5051DB"/>
<path d="M19.4786 37.37C19.4786 37.9264 18.9222 38.3716 18.2545 38.2603C17.698 38.2603 17.2529 37.7038 17.3642 37.0361C18.2545 29.1347 24.9317 23.0139 33.0557 23.0139C41.0684 23.0139 47.8569 29.1347 48.7472 37.0361C48.7472 37.7038 48.3021 38.2603 47.7456 38.2603C47.0779 38.3716 46.5215 37.9264 46.5215 37.37C45.7425 30.4702 39.9555 25.2396 33.0557 25.2396C26.1559 25.2396 20.2576 30.4702 19.4786 37.37Z" fill="#5051DB"/>
<path d="M53.6437 9.21417C58.2065 9.21417 61.879 12.8867 61.879 17.3382C61.879 21.901 58.2065 25.5734 53.6437 25.5734C49.1922 25.5734 45.5197 21.901 45.5197 17.3382C45.5197 12.8867 49.1922 9.21417 53.6437 9.21417ZM53.6437 11.4399C50.4164 11.4399 47.7455 14.1108 47.7455 17.3382C47.7455 20.6768 50.4164 23.3477 53.6437 23.3477C56.9823 23.3477 59.6532 20.6768 59.6532 17.3382C59.6532 14.1108 56.9823 11.4399 53.6437 11.4399Z" fill="#5051DB"/>
<path d="M49.1922 30.025C48.6358 30.3589 47.968 30.1363 47.6342 29.5798C47.4116 29.0234 47.6342 28.3557 48.1906 28.0218C49.8599 27.2428 51.7518 26.6864 53.6437 26.6864C59.6532 26.6864 64.7725 31.1379 65.6628 37.0361C65.774 37.5926 65.3289 38.2603 64.7725 38.2603C64.1047 38.3716 63.5483 37.9264 63.437 37.37C62.7693 32.4733 58.5404 28.9121 53.6437 28.9121C52.0857 28.9121 50.5277 29.3573 49.1922 30.025Z" fill="#5051DB"/>
<path d="M12.3562 9.21417C16.8077 9.21417 20.4802 12.8867 20.4802 17.3382C20.4802 21.901 16.8077 25.5734 12.3562 25.5734C7.7934 25.5734 4.12091 21.901 4.12091 17.3382C4.12091 12.8867 7.7934 9.21417 12.3562 9.21417ZM12.3562 11.4399C9.01756 11.4399 6.34666 14.1108 6.34666 17.3382C6.34666 20.6768 9.01756 23.3477 12.3562 23.3477C15.5835 23.3477 18.2544 20.6768 18.2544 17.3382C18.2544 14.1108 15.5835 11.4399 12.3562 11.4399Z" fill="#5051DB"/>
<path d="M2.56286 37.37C2.45157 37.9264 1.89514 38.3716 1.3387 38.2603C0.670974 38.2603 0.225824 37.5926 0.337111 37.0361C1.22741 31.1379 6.34664 26.6864 12.3562 26.6864C14.2481 26.6864 16.1399 27.2428 17.9205 28.0218C18.3657 28.3557 18.5883 29.0234 18.3657 29.5798C18.0318 30.1363 17.3641 30.3589 16.8077 30.025C15.4722 29.3573 13.9142 28.9121 12.3562 28.9121C7.45951 28.9121 3.23059 32.4733 2.56286 37.37Z" fill="#5051DB"/>
</svg>
