<svg width="122" height="69" viewBox="0 0 122 69" fill="none" xmlns="http://www.w3.org/2000/svg">
<path d="M36.0027 55.1859C36.0274 55.1596 36.1427 55.0735 36.5957 55.0735L38.0808 55.073C38.5639 55.073 38.9568 54.7012 38.9568 54.2442V51.7888C38.9568 51.3325 38.5645 50.9607 38.0822 50.9599L35.8762 50.9565C34.5147 50.9565 33.3573 51.3814 32.5291 52.1853C31.7046 52.9856 31.2687 54.1027 31.2687 55.4158V56.7401H29.5812C29.098 56.7401 28.705 57.1119 28.705 57.569V60.2134C28.705 60.6705 29.098 61.0422 29.5812 61.0422H31.2687V67.214C31.2687 67.6711 31.6617 68.0429 32.1449 68.0429H35.0374C35.5205 68.0429 35.9135 67.6711 35.9135 67.214V61.0424H37.9763C38.4595 61.0424 38.8524 60.6705 38.8524 60.2137L38.8535 57.5691C38.8535 57.2689 38.6808 56.9911 38.4027 56.8442C38.2739 56.7761 38.1239 56.7401 37.9693 56.7401H35.9135V55.6939C35.9135 55.3529 35.9621 55.2294 36.0027 55.1859Z" fill="white"/>
<path d="M17.6646 54.0224C17.0077 54.3105 16.3078 54.5015 15.578 54.5943C16.3287 54.146 16.9017 53.4416 17.1711 52.5926C16.4712 53.01 15.6983 53.3047 14.8747 53.4692C14.2101 52.7615 13.2628 52.3232 12.2294 52.3232C10.2245 52.3232 8.6104 53.9506 8.6104 55.9456C8.6104 56.2326 8.63469 56.5087 8.69431 56.7714C5.68359 56.6246 3.01955 55.1816 1.2299 52.9835C0.917457 53.5255 0.734186 54.146 0.734186 54.814C0.734186 56.0681 1.38005 57.1799 2.34277 57.8236C1.76094 57.8125 1.19015 57.6436 0.706585 57.3775C0.706585 57.3886 0.706585 57.4029 0.706585 57.4173C0.706585 59.1771 1.96188 60.6389 3.608 60.9756C3.31322 61.0562 2.99195 61.0948 2.65853 61.0948C2.42668 61.0948 2.19262 61.0816 1.97292 61.033C2.44213 62.4672 3.77361 63.5215 5.3568 63.5557C4.12469 64.5196 2.56027 65.1003 0.866671 65.1003C0.569684 65.1003 0.284842 65.087 0 65.0506C1.60417 66.0851 3.50532 66.6757 5.55553 66.6757C12.2195 66.6757 15.8628 61.1556 15.8628 56.3706C15.8628 56.2106 15.8573 56.056 15.8496 55.9025C16.5683 55.3925 17.1722 54.7554 17.6646 54.0224Z" fill="white"/>
<path d="M61.6389 50.9565H55.2316C52.2831 50.9565 49.8921 53.3476 49.8921 56.296V62.7034C49.8921 65.6518 52.2831 68.0429 55.2316 68.0429H61.6389C64.5874 68.0429 66.9784 65.6518 66.9784 62.7034V56.296C66.9784 53.3476 64.5874 50.9565 61.6389 50.9565ZM65.3766 62.7034C65.3766 64.7644 63.7 66.441 61.6389 66.441H55.2316C53.1705 66.441 51.4939 64.7644 51.4939 62.7034V56.296C51.4939 54.235 53.1705 52.5584 55.2316 52.5584H61.6389C63.7 52.5584 65.3766 54.235 65.3766 56.296V62.7034Z" fill="white"/>
<path d="M58.4352 55.228C56.0762 55.228 54.1636 57.1406 54.1636 59.4996C54.1636 61.8586 56.0762 63.7712 58.4352 63.7712C60.7942 63.7712 62.7068 61.8586 62.7068 59.4996C62.7068 57.1406 60.7942 55.228 58.4352 55.228ZM58.4352 62.1693C56.9637 62.1693 55.7655 60.9712 55.7655 59.4996C55.7655 58.027 56.9637 56.8299 58.4352 56.8299C59.9068 56.8299 61.105 58.027 61.105 59.4996C61.105 60.9712 59.9068 62.1693 58.4352 62.1693Z" fill="white"/>
<path d="M63.0272 55.4768C63.3415 55.4768 63.5964 55.2219 63.5964 54.9076C63.5964 54.5932 63.3415 54.3384 63.0272 54.3384C62.7128 54.3384 62.458 54.5932 62.458 54.9076C62.458 55.2219 62.7128 55.4768 63.0272 55.4768Z" fill="white"/>
<path d="M79.9858 50.9565C78.7329 50.9565 77.9137 51.8173 77.9137 52.9486C77.9137 54.0549 78.7085 54.9402 79.9377 54.9402H79.9615C81.2389 54.9402 82.0339 54.0549 82.0339 52.9486C82.01 51.8173 81.2389 50.9565 79.9858 50.9565Z" fill="white"/>
<path d="M78.1302 56.5142H81.7929V68.0428H78.1302V56.5142Z" fill="white"/>
<path d="M90.7833 56.2432C88.8073 56.2432 87.4824 58.1857 87.4824 58.1857V56.5137H83.8195V68.0424H87.4822V61.6043C87.4822 61.2597 87.5061 60.9156 87.6028 60.6691C87.8676 59.9809 88.4702 59.2679 89.4821 59.2679C90.8075 59.2679 91.3375 60.3251 91.3375 61.8749V68.0424H95V61.4321C95 57.891 93.1929 56.2432 90.7833 56.2432Z" fill="white"/>
<path d="M10.16 17.1C10.16 18.3667 9.7 19.3667 8.78 20.1C7.86 20.8333 6.58667 21.2 4.96 21.2C3.38667 21.2 2.05333 20.9333 0.96 20.4V18C1.56 18.2667 2.22 18.5133 2.94 18.74C3.66 18.9533 4.39333 19.06 5.14 19.06C5.99333 19.06 6.62 18.8933 7.02 18.56C7.42 18.2267 7.62 17.7867 7.62 17.24C7.62 16.64 7.36667 16.1667 6.86 15.82C6.35333 15.4733 5.61333 15.0933 4.64 14.68C4.05333 14.4267 3.49333 14.1267 2.96 13.78C2.42667 13.4333 1.98667 12.9933 1.64 12.46C1.29333 11.9133 1.12 11.2333 1.12 10.42C1.12 9.19333 1.54667 8.24 2.4 7.56C3.26667 6.86667 4.42 6.52 5.86 6.52C6.62 6.52 7.32667 6.6 7.98 6.76C8.64667 6.92 9.31333 7.14667 9.98 7.44L9.16 9.5C8.56 9.24667 7.98667 9.04667 7.44 8.9C6.90667 8.75333 6.35333 8.68 5.78 8.68C5.08667 8.68 4.56 8.84 4.2 9.16C3.84 9.46667 3.66 9.86667 3.66 10.36C3.66 10.76 3.76 11.0933 3.96 11.36C4.16 11.6267 4.46667 11.8733 4.88 12.1C5.30667 12.3267 5.85333 12.5867 6.52 12.88C7.28 13.2133 7.93333 13.56 8.48 13.92C9.02667 14.28 9.44 14.7133 9.72 15.22C10.0133 15.7267 10.16 16.3533 10.16 17.1ZM22.2961 15.56C22.2961 17.36 21.8294 18.7533 20.8961 19.74C19.9628 20.7133 18.6961 21.2 17.0961 21.2C16.1094 21.2 15.2294 20.98 14.4561 20.54C13.6828 20.1 13.0761 19.46 12.6361 18.62C12.1961 17.78 11.9761 16.76 11.9761 15.56C11.9761 13.76 12.4361 12.38 13.3561 11.42C14.2894 10.4467 15.5561 9.96 17.1561 9.96C18.1561 9.96 19.0428 10.18 19.8161 10.62C20.5894 11.0467 21.1961 11.68 21.6361 12.52C22.0761 13.3467 22.2961 14.36 22.2961 15.56ZM14.5561 15.56C14.5561 16.7067 14.7561 17.5933 15.1561 18.22C15.5694 18.8467 16.2294 19.16 17.1361 19.16C18.0428 19.16 18.6961 18.8467 19.0961 18.22C19.5094 17.5933 19.7161 16.7067 19.7161 15.56C19.7161 14.4133 19.5094 13.5333 19.0961 12.92C18.6961 12.3067 18.0361 12 17.1161 12C16.2228 12 15.5694 12.3067 15.1561 12.92C14.7561 13.5333 14.5561 14.4133 14.5561 15.56ZM29.2813 21.2C27.7213 21.2 26.4946 20.7533 25.6013 19.86C24.7079 18.9667 24.2613 17.56 24.2613 15.64C24.2613 14.3067 24.4813 13.2267 24.9213 12.4C25.3746 11.56 25.9946 10.9467 26.7813 10.56C27.5679 10.16 28.4679 9.96 29.4813 9.96C30.1613 9.96 30.7679 10.0267 31.3013 10.16C31.8346 10.2933 32.2879 10.4533 32.6613 10.64L31.9213 12.62C31.5079 12.46 31.0946 12.3267 30.6813 12.22C30.2679 12.1 29.8679 12.04 29.4813 12.04C27.7213 12.04 26.8413 13.2333 26.8413 15.62C26.8413 16.78 27.0613 17.6533 27.5013 18.24C27.9546 18.8267 28.6013 19.12 29.4413 19.12C30.0413 19.12 30.5746 19.0467 31.0413 18.9C31.5079 18.7533 31.9546 18.5533 32.3813 18.3V20.48C31.9679 20.72 31.5213 20.9 31.0413 21.02C30.5746 21.14 29.9879 21.2 29.2813 21.2ZM36.1808 5.98C36.5674 5.98 36.8941 6.08 37.1608 6.28C37.4408 6.46667 37.5808 6.80667 37.5808 7.3C37.5808 7.79333 37.4408 8.14 37.1608 8.34C36.8941 8.54 36.5674 8.64 36.1808 8.64C35.7941 8.64 35.4608 8.54 35.1808 8.34C34.9141 8.14 34.7808 7.79333 34.7808 7.3C34.7808 6.80667 34.9141 6.46667 35.1808 6.28C35.4608 6.08 35.7941 5.98 36.1808 5.98ZM37.4408 10.16V21H34.9208V10.16H37.4408ZM44.983 9.96C46.383 9.96 47.443 10.2667 48.163 10.88C48.8963 11.4933 49.263 12.44 49.263 13.72V21H47.483L46.983 19.5H46.903C46.4363 20.0867 45.943 20.52 45.423 20.8C44.903 21.0667 44.1963 21.2 43.303 21.2C42.3296 21.2 41.523 20.9267 40.883 20.38C40.243 19.8333 39.923 18.9867 39.923 17.84C39.923 16.72 40.3296 15.88 41.143 15.32C41.9696 14.76 43.2163 14.4467 44.883 14.38L46.763 14.32V13.78C46.763 13.1 46.5963 12.6133 46.263 12.32C45.9296 12.0133 45.463 11.86 44.863 11.86C44.3163 11.86 43.7896 11.94 43.283 12.1C42.7896 12.26 42.2963 12.4467 41.803 12.66L41.003 10.9C41.5363 10.62 42.143 10.3933 42.823 10.22C43.5163 10.0467 44.2363 9.96 44.983 9.96ZM46.763 15.88L45.443 15.92C44.3363 15.96 43.5696 16.1533 43.143 16.5C42.7163 16.8333 42.503 17.2867 42.503 17.86C42.503 18.38 42.6496 18.7533 42.943 18.98C43.2496 19.1933 43.6496 19.3 44.143 19.3C44.8763 19.3 45.4963 19.0933 46.003 18.68C46.5096 18.2533 46.763 17.6267 46.763 16.8V15.88ZM54.9408 21H52.4208V5.8H54.9408V21ZM69.7383 21L65.8183 9.3H65.7383C65.7516 9.56667 65.7716 9.94667 65.7983 10.44C65.8249 10.92 65.8449 11.4467 65.8583 12.02C65.8849 12.58 65.8983 13.1067 65.8983 13.6V21H63.5983V6.72H67.1583L70.9183 17.94H70.9983L74.9183 6.72H78.4783V21H76.0383V13.48C76.0383 13.0267 76.0449 12.5333 76.0583 12C76.0849 11.4533 76.1049 10.94 76.1183 10.46C76.1449 9.98 76.1649 9.6 76.1783 9.32H76.0983L72.0183 21H69.7383ZM86.2925 9.96C87.7458 9.96 88.8925 10.3933 89.7325 11.26C90.5858 12.1267 91.0125 13.3333 91.0125 14.88V16.16H83.8525C83.8792 17.1467 84.1525 17.9133 84.6725 18.46C85.1925 18.9933 85.9125 19.26 86.8325 19.26C87.5258 19.26 88.1525 19.1933 88.7125 19.06C89.2725 18.9133 89.8458 18.7067 90.4325 18.44V20.46C89.8992 20.7133 89.3458 20.9 88.7725 21.02C88.1992 21.14 87.5125 21.2 86.7125 21.2C85.6592 21.2 84.7192 21 83.8925 20.6C83.0792 20.1867 82.4392 19.5667 81.9725 18.74C81.5192 17.9133 81.2925 16.8867 81.2925 15.66C81.2925 13.8067 81.7525 12.3933 82.6725 11.42C83.5925 10.4467 84.7992 9.96 86.2925 9.96ZM86.2925 11.82C85.6125 11.82 85.0592 12.04 84.6325 12.48C84.2192 12.9067 83.9792 13.5467 83.9125 14.4H88.5725C88.5592 13.6533 88.3658 13.04 87.9925 12.56C87.6325 12.0667 87.0658 11.82 86.2925 11.82ZM97.1336 21.2C95.8669 21.2 94.8469 20.7267 94.0736 19.78C93.3003 18.8333 92.9136 17.44 92.9136 15.6C92.9136 13.7333 93.3069 12.3267 94.0936 11.38C94.8803 10.4333 95.9136 9.96 97.1936 9.96C97.9936 9.96 98.6469 10.1133 99.1536 10.42C99.6736 10.7267 100.087 11.1 100.394 11.54H100.514C100.474 11.3533 100.434 11.0667 100.394 10.68C100.354 10.2933 100.334 9.93333 100.334 9.6V5.8H102.854V21H100.894L100.434 19.58H100.334C100.027 20.0333 99.6203 20.42 99.1136 20.74C98.6069 21.0467 97.9469 21.2 97.1336 21.2ZM97.8936 19.16C98.8269 19.16 99.4803 18.8933 99.8536 18.36C100.24 17.8267 100.44 17.02 100.454 15.94V15.62C100.454 14.46 100.267 13.5733 99.8936 12.96C99.5336 12.3333 98.8536 12.02 97.8536 12.02C97.0803 12.02 96.4869 12.34 96.0736 12.98C95.6736 13.6067 95.4736 14.4933 95.4736 15.64C95.4736 16.7867 95.6803 17.66 96.0936 18.26C96.5069 18.86 97.1069 19.16 97.8936 19.16ZM107.333 5.98C107.72 5.98 108.046 6.08 108.313 6.28C108.593 6.46667 108.733 6.80667 108.733 7.3C108.733 7.79333 108.593 8.14 108.313 8.34C108.046 8.54 107.72 8.64 107.333 8.64C106.946 8.64 106.613 8.54 106.333 8.34C106.066 8.14 105.933 7.79333 105.933 7.3C105.933 6.80667 106.066 6.46667 106.333 6.28C106.613 6.08 106.946 5.98 107.333 5.98ZM108.593 10.16V21H106.073V10.16H108.593ZM116.135 9.96C117.535 9.96 118.595 10.2667 119.315 10.88C120.049 11.4933 120.415 12.44 120.415 13.72V21H118.635L118.135 19.5H118.055C117.589 20.0867 117.095 20.52 116.575 20.8C116.055 21.0667 115.349 21.2 114.455 21.2C113.482 21.2 112.675 20.9267 112.035 20.38C111.395 19.8333 111.075 18.9867 111.075 17.84C111.075 16.72 111.482 15.88 112.295 15.32C113.122 14.76 114.369 14.4467 116.035 14.38L117.915 14.32V13.78C117.915 13.1 117.749 12.6133 117.415 12.32C117.082 12.0133 116.615 11.86 116.015 11.86C115.469 11.86 114.942 11.94 114.435 12.1C113.942 12.26 113.449 12.4467 112.955 12.66L112.155 10.9C112.689 10.62 113.295 10.3933 113.975 10.22C114.669 10.0467 115.389 9.96 116.135 9.96ZM117.915 15.88L116.595 15.92C115.489 15.96 114.722 16.1533 114.295 16.5C113.869 16.8333 113.655 17.2867 113.655 17.86C113.655 18.38 113.802 18.7533 114.095 18.98C114.402 19.1933 114.802 19.3 115.295 19.3C116.029 19.3 116.649 19.0933 117.155 18.68C117.662 18.2533 117.915 17.6267 117.915 16.8V15.88Z" fill="white"/>
</svg>
