<svg width="261" height="188" viewBox="0 0 261 188" fill="none" xmlns="http://www.w3.org/2000/svg">
<path d="M66.6594 2.65469L56.8851 41H47.6479L42.4385 20.8607C42.3311 20.4668 42.1879 19.8761 42.0089 19.0884C41.8656 18.3007 41.6866 17.4414 41.4718 16.5106C41.2928 15.5797 41.1317 14.7025 40.9885 13.879C40.8453 13.0197 40.7378 12.3574 40.6662 11.8919C40.6304 12.3574 40.523 13.0197 40.344 13.879C40.2008 14.7025 40.0397 15.5797 39.8607 16.5106C39.6816 17.4056 39.5026 18.2649 39.3236 19.0884C39.1446 19.8761 39.0014 20.4847 38.894 20.9144L33.7383 41H24.5011L14.7268 2.65469H22.7288L27.6159 23.5996C27.8308 24.4231 28.0635 25.4614 28.3141 26.7145C28.5647 27.9676 28.7975 29.2207 29.0123 30.4738C29.2271 31.727 29.3882 32.7831 29.4956 33.6424C29.603 32.7473 29.7641 31.6911 29.979 30.4738C30.1938 29.2207 30.4086 28.0213 30.6234 26.8756C30.874 25.6941 31.0889 24.7811 31.2679 24.1367L36.8532 2.65469H44.533L50.1183 24.1367C50.2973 24.7453 50.4942 25.6404 50.7091 26.8219C50.9597 28.0034 51.1924 29.2207 51.4072 30.4738C51.622 31.727 51.7832 32.7831 51.8906 33.6424C51.998 32.7473 52.1591 31.6911 52.3739 30.4738C52.5887 29.2207 52.8215 27.9676 53.0721 26.7145C53.3585 25.4614 53.5912 24.4231 53.7702 23.5996L58.6574 2.65469H66.6594ZM81.8722 11.1401C85.9179 11.1401 89.1223 12.3037 91.4854 14.6309C93.8484 16.9223 95.0299 20.1983 95.0299 24.4589V28.3256H76.1257C76.1973 30.5812 76.8597 32.3535 78.1128 33.6424C79.4017 34.9313 81.174 35.5758 83.4296 35.5758C85.3272 35.5758 87.0457 35.3968 88.5853 35.0388C90.1248 34.6449 91.7181 34.0542 93.365 33.2665V39.4426C91.9329 40.1586 90.4113 40.6778 88.8001 41C87.2248 41.358 85.3093 41.537 83.0537 41.537C80.1178 41.537 77.5221 41 75.2665 39.9259C73.0109 38.816 71.2386 37.1511 69.9497 34.9313C68.6608 32.7115 68.0163 29.9189 68.0163 26.5534C68.0163 23.1163 68.5892 20.2699 69.7349 18.0143C70.9164 15.7229 72.5454 14.0043 74.622 12.8586C76.6986 11.7129 79.1153 11.1401 81.8722 11.1401ZM81.9259 16.8328C80.3863 16.8328 79.0974 17.334 78.0591 18.3365C77.0566 19.339 76.4659 20.8965 76.2869 23.0089H87.5112C87.4754 21.2187 87.0099 19.7508 86.1149 18.605C85.2198 17.4235 83.8234 16.8328 81.9259 16.8328ZM123.471 0.18426V9.69003C123.471 10.7999 123.435 11.8919 123.364 12.966C123.292 14.0401 123.221 14.8815 123.149 15.4902H123.471C124.259 14.2729 125.315 13.2525 126.64 12.429C127.965 11.5697 129.683 11.1401 131.796 11.1401C135.089 11.1401 137.757 12.429 139.798 15.0068C141.838 17.5489 142.859 21.3082 142.859 26.2849C142.859 31.2973 141.82 35.0925 139.744 37.6703C137.667 40.2481 134.946 41.537 131.581 41.537C129.432 41.537 127.732 41.1611 126.479 40.4092C125.261 39.6216 124.259 38.7444 123.471 37.7777H122.934L121.592 41H115.469V0.18426H123.471ZM129.218 17.531C127.141 17.531 125.673 18.1754 124.814 19.4643C123.99 20.7532 123.543 22.7224 123.471 25.3719V26.2311C123.471 29.0596 123.883 31.2436 124.706 32.7831C125.566 34.2869 127.105 35.0388 129.325 35.0388C130.972 35.0388 132.279 34.2869 133.246 32.7831C134.212 31.2436 134.696 29.0417 134.696 26.1774C134.696 23.3132 134.194 21.165 133.192 19.7329C132.225 18.2649 130.9 17.531 129.218 17.531ZM176.361 11.6771V41H170.238L169.164 37.2407H168.734C167.804 38.7444 166.515 39.8364 164.868 40.5167C163.257 41.1969 161.538 41.537 159.712 41.537C156.561 41.537 154.037 40.6957 152.14 39.0129C150.242 37.2944 149.293 34.5554 149.293 30.7961V11.6771H157.295V28.809C157.295 30.8856 157.671 32.4609 158.423 33.535C159.175 34.6091 160.374 35.1462 162.021 35.1462C164.456 35.1462 166.121 34.3227 167.016 32.6757C167.911 30.993 168.358 28.5942 168.358 25.4793V11.6771H176.361ZM188.779 0.18426C189.96 0.18426 190.98 0.470687 191.84 1.04354C192.699 1.58059 193.129 2.60098 193.129 4.10472C193.129 5.57265 192.699 6.59305 191.84 7.1659C190.98 7.73875 189.96 8.02518 188.779 8.02518C187.561 8.02518 186.523 7.73875 185.664 7.1659C184.84 6.59305 184.428 5.57265 184.428 4.10472C184.428 2.60098 184.84 1.58059 185.664 1.04354C186.523 0.470687 187.561 0.18426 188.779 0.18426ZM192.753 11.6771V41H184.751V11.6771H192.753ZM209.116 41H201.114V0.18426H209.116V41ZM226.768 41.537C223.51 41.537 220.843 40.266 218.766 37.724C216.725 35.1462 215.705 31.3689 215.705 26.3923C215.705 21.3798 216.743 17.5847 218.82 15.0068C220.896 12.429 223.617 11.1401 226.983 11.1401C229.095 11.1401 230.832 11.5518 232.192 12.3753C233.553 13.1988 234.627 14.2191 235.415 15.4365H235.683C235.576 14.8636 235.45 14.0401 235.307 12.966C235.164 11.8561 235.092 10.7283 235.092 9.58262V0.18426H243.094V41H236.972L235.415 37.187H235.092C234.305 38.4043 233.248 39.4426 231.924 40.3018C230.599 41.1253 228.88 41.537 226.768 41.537ZM229.561 35.1462C231.78 35.1462 233.338 34.5017 234.233 33.2128C235.128 31.8881 235.594 29.9189 235.629 27.3052V26.446C235.629 23.5817 235.182 21.3977 234.287 19.894C233.427 18.3902 231.816 17.6384 229.453 17.6384C227.699 17.6384 226.32 18.4081 225.318 19.9477C224.316 21.4514 223.814 23.6354 223.814 26.4997C223.814 29.3639 224.316 31.53 225.318 32.998C226.32 34.4301 227.735 35.1462 229.561 35.1462ZM32.8033 84.1401C36.0972 84.1401 38.7645 85.429 40.8053 88.0068C42.8461 90.5489 43.8665 94.3082 43.8665 99.2849C43.8665 104.262 42.8103 108.057 40.6979 110.67C38.5855 113.248 35.8824 114.537 32.5885 114.537C30.4761 114.537 28.7933 114.161 27.5402 113.409C26.2871 112.622 25.2667 111.744 24.479 110.778H24.0494C24.3358 112.281 24.479 113.714 24.479 115.074V126.889H16.477V84.6771H22.9753L24.1031 88.4902H24.479C25.2667 87.3087 26.3229 86.2883 27.6476 85.429C28.9723 84.5697 30.6909 84.1401 32.8033 84.1401ZM30.2255 90.531C28.1489 90.531 26.6809 91.1754 25.8216 92.4643C24.9982 93.7532 24.5506 95.7224 24.479 98.3719V99.2311C24.479 102.06 24.8908 104.244 25.7142 105.783C26.5735 107.287 28.1131 108.039 30.3329 108.039C32.1588 108.039 33.5015 107.287 34.3607 105.783C35.2558 104.244 35.7034 102.042 35.7034 99.1774C35.7034 93.4131 33.8774 90.531 30.2255 90.531ZM66.8421 84.1401C67.236 84.1401 67.7014 84.158 68.2385 84.1938C68.7755 84.2296 69.2052 84.2833 69.5274 84.3549L68.9366 91.8736C68.686 91.802 68.3101 91.7483 67.8088 91.7125C67.3434 91.6409 66.9316 91.605 66.5736 91.605C65.2131 91.605 63.9063 91.8557 62.6532 92.3569C61.4 92.8224 60.3796 93.5921 59.592 94.6662C58.8401 95.7403 58.4642 97.2083 58.4642 99.07V114H50.4621V84.6771H56.5308L57.7123 89.618H58.0882C58.9475 88.1142 60.129 86.8253 61.6328 85.7512C63.1365 84.6771 64.873 84.1401 66.8421 84.1401ZM100.438 99.2849C100.438 104.154 99.1494 107.913 96.5716 110.563C94.0295 113.212 90.5566 114.537 86.1528 114.537C83.4318 114.537 80.9972 113.946 78.849 112.765C76.7366 111.583 75.0717 109.865 73.8544 107.609C72.6371 105.318 72.0284 102.543 72.0284 99.2849C72.0284 94.4156 73.2994 90.6742 75.8415 88.0605C78.3835 85.4469 81.8743 84.1401 86.3139 84.1401C89.0708 84.1401 91.5054 84.7308 93.6178 85.9123C95.7302 87.0938 97.3951 88.8124 98.6124 91.068C99.8297 93.2878 100.438 96.0268 100.438 99.2849ZM80.1916 99.2849C80.1916 102.185 80.657 104.387 81.5879 105.891C82.5546 107.358 84.112 108.092 86.2602 108.092C88.3726 108.092 89.8943 107.358 90.8252 105.891C91.7918 104.387 92.2752 102.185 92.2752 99.2849C92.2752 96.3848 91.7918 94.2187 90.8252 92.7866C89.8943 91.3186 88.3547 90.5847 86.2065 90.5847C84.0941 90.5847 82.5546 91.3186 81.5879 92.7866C80.657 94.2187 80.1916 96.3848 80.1916 99.2849ZM116.343 114.537C113.084 114.537 110.417 113.266 108.341 110.724C106.3 108.146 105.279 104.369 105.279 99.3923C105.279 94.3798 106.318 90.5847 108.394 88.0068C110.471 85.429 113.192 84.1401 116.557 84.1401C118.67 84.1401 120.406 84.5518 121.767 85.3753C123.127 86.1988 124.201 87.2191 124.989 88.4365H125.258C125.15 87.8636 125.025 87.0401 124.882 85.966C124.738 84.8561 124.667 83.7283 124.667 82.5826V73.1843H132.669V114H126.546L124.989 110.187H124.667C123.879 111.404 122.823 112.443 121.498 113.302C120.173 114.125 118.455 114.537 116.343 114.537ZM119.135 108.146C121.355 108.146 122.912 107.502 123.808 106.213C124.703 104.888 125.168 102.919 125.204 100.305V99.446C125.204 96.5817 124.756 94.3977 123.861 92.894C123.002 91.3902 121.391 90.6384 119.028 90.6384C117.273 90.6384 115.895 91.4081 114.893 92.9477C113.89 94.4514 113.389 96.6354 113.389 99.4997C113.389 102.364 113.89 104.53 114.893 105.998C115.895 107.43 117.309 108.146 119.135 108.146ZM167.943 84.6771V114H161.821L160.746 110.241H160.317C159.386 111.744 158.097 112.836 156.45 113.517C154.839 114.197 153.12 114.537 151.294 114.537C148.144 114.537 145.62 113.696 143.722 112.013C141.824 110.294 140.876 107.555 140.876 103.796V84.6771H148.878V101.809C148.878 103.886 149.254 105.461 150.005 106.535C150.757 107.609 151.957 108.146 153.604 108.146C156.038 108.146 157.703 107.323 158.598 105.676C159.493 103.993 159.941 101.594 159.941 98.4793V84.6771H167.943ZM188.256 114.537C183.888 114.537 180.504 113.338 178.105 110.939C175.742 108.504 174.561 104.691 174.561 99.4997C174.561 95.9193 175.169 93.0014 176.387 90.7458C177.604 88.4902 179.287 86.8253 181.435 85.7512C183.619 84.6771 186.125 84.1401 188.954 84.1401C190.959 84.1401 192.695 84.337 194.163 84.7308C195.667 85.1247 196.974 85.5901 198.084 86.1271L195.721 92.3032C194.467 91.802 193.286 91.3902 192.176 91.068C191.102 90.7458 190.028 90.5847 188.954 90.5847C184.801 90.5847 182.724 93.5384 182.724 99.446C182.724 102.382 183.261 104.548 184.335 105.944C185.445 107.341 186.985 108.039 188.954 108.039C190.636 108.039 192.122 107.824 193.411 107.394C194.7 106.929 195.953 106.302 197.171 105.515V112.335C195.953 113.123 194.664 113.678 193.304 114C191.979 114.358 190.296 114.537 188.256 114.537ZM216.272 108.146C217.167 108.146 218.026 108.057 218.85 107.878C219.673 107.699 220.497 107.484 221.32 107.233V113.194C220.461 113.552 219.387 113.857 218.098 114.107C216.845 114.394 215.466 114.537 213.963 114.537C212.208 114.537 210.633 114.251 209.237 113.678C207.876 113.105 206.784 112.12 205.961 110.724C205.173 109.292 204.779 107.323 204.779 104.816V90.6921H200.966V87.3087L205.37 84.6234L207.679 78.4473H212.781V84.6771H220.998V90.6921H212.781V104.816C212.781 105.926 213.103 106.768 213.748 107.341C214.392 107.878 215.234 108.146 216.272 108.146ZM247.667 105.3C247.667 108.271 246.611 110.563 244.499 112.174C242.422 113.749 239.307 114.537 235.154 114.537C233.113 114.537 231.359 114.394 229.891 114.107C228.423 113.857 226.955 113.427 225.487 112.818V106.213C227.063 106.929 228.763 107.52 230.589 107.985C232.415 108.45 234.026 108.683 235.423 108.683C236.998 108.683 238.108 108.45 238.752 107.985C239.433 107.52 239.773 106.911 239.773 106.159C239.773 105.658 239.63 105.21 239.343 104.816C239.093 104.423 238.52 103.975 237.625 103.474C236.73 102.973 235.333 102.328 233.436 101.54C231.61 100.753 230.106 99.983 228.924 99.2311C227.743 98.4435 226.866 97.5126 226.293 96.4385C225.72 95.3286 225.434 93.9502 225.434 92.3032C225.434 89.5822 226.49 87.5414 228.602 86.1809C230.715 84.8203 233.525 84.1401 237.034 84.1401C238.86 84.1401 240.596 84.3191 242.243 84.6771C243.89 85.0351 245.591 85.6259 247.345 86.4494L244.928 92.1958C243.496 91.5871 242.136 91.0859 240.847 90.6921C239.558 90.2624 238.251 90.0476 236.926 90.0476C234.563 90.0476 233.382 90.6921 233.382 91.981C233.382 92.4464 233.525 92.8761 233.812 93.2699C234.134 93.6279 234.725 94.0218 235.584 94.4514C236.479 94.881 237.786 95.4539 239.504 96.17C241.187 96.8502 242.637 97.5663 243.854 98.3182C245.072 99.0342 246.003 99.9472 246.647 101.057C247.327 102.131 247.667 103.545 247.667 105.3ZM16.0323 181.146C16.9273 181.146 17.7866 181.057 18.6101 180.878C19.4336 180.699 20.257 180.484 21.0805 180.233V186.194C20.2212 186.552 19.1471 186.857 17.8582 187.107C16.6051 187.394 15.2267 187.537 13.7229 187.537C11.9686 187.537 10.3932 187.251 8.99691 186.678C7.63638 186.105 6.54438 185.12 5.72091 183.724C4.93323 182.292 4.5394 180.323 4.5394 177.816V163.692H0.726348V160.309L5.13015 157.623L7.43946 151.447H12.5414V157.677H20.7583V163.692H12.5414V177.816C12.5414 178.926 12.8637 179.768 13.5081 180.341C14.1526 180.878 14.994 181.146 16.0323 181.146ZM34.9683 146.184V154.509C34.9683 155.941 34.9146 157.319 34.8072 158.644C34.7355 159.969 34.6639 160.899 34.5923 161.436H35.022C35.9529 159.933 37.1523 158.841 38.6202 158.16C40.0881 157.48 41.7172 157.14 43.5074 157.14C46.6938 157.14 49.2359 157.999 51.1334 159.718C53.0668 161.401 54.0335 164.122 54.0335 167.881V187H46.0315V169.868C46.0315 165.643 44.4561 163.531 41.3055 163.531C38.9066 163.531 37.2418 164.372 36.3109 166.055C35.4158 167.702 34.9683 170.083 34.9683 173.198V187H26.9662V146.184H34.9683ZM74.2924 157.086C78.2308 157.086 81.2383 157.946 83.3149 159.664C85.4273 161.347 86.4835 163.943 86.4835 167.451V187H80.8981L79.3407 183.026H79.1259C77.8728 184.601 76.548 185.747 75.1517 186.463C73.7554 187.179 71.8399 187.537 69.4053 187.537C66.7917 187.537 64.6256 186.785 62.907 185.281C61.1884 183.742 60.3292 181.397 60.3292 178.246C60.3292 175.131 61.4212 172.84 63.6052 171.372C65.7892 169.868 69.0652 169.045 73.4332 168.901L78.5351 168.74V167.451C78.5351 165.912 78.1234 164.784 77.2999 164.068C76.5122 163.352 75.4023 162.994 73.9702 162.994C72.5381 162.994 71.1417 163.209 69.7812 163.638C68.4207 164.032 67.0602 164.533 65.6996 165.142L63.0681 159.718C64.6435 158.894 66.3799 158.25 68.2775 157.785C70.2109 157.319 72.2158 157.086 74.2924 157.086ZM78.5351 173.413L75.4202 173.52C72.8424 173.592 71.0522 174.057 70.0497 174.916C69.0473 175.776 68.546 176.903 68.546 178.3C68.546 179.517 68.904 180.394 69.6201 180.931C70.3362 181.433 71.2671 181.683 72.4128 181.683C74.1313 181.683 75.5814 181.182 76.7629 180.179C77.9444 179.141 78.5351 177.691 78.5351 175.829V173.413ZM107.026 181.146C107.922 181.146 108.781 181.057 109.604 180.878C110.428 180.699 111.251 180.484 112.075 180.233V186.194C111.215 186.552 110.141 186.857 108.852 187.107C107.599 187.394 106.221 187.537 104.717 187.537C102.963 187.537 101.387 187.251 99.9911 186.678C98.6306 186.105 97.5386 185.12 96.7151 183.724C95.9274 182.292 95.5336 180.323 95.5336 177.816V163.692H91.7205V160.309L96.1243 157.623L98.4336 151.447H103.536V157.677H111.752V163.692H103.536V177.816C103.536 178.926 103.858 179.768 104.502 180.341C105.147 180.878 105.988 181.146 107.026 181.146ZM152.373 178.3C152.373 181.271 151.316 183.563 149.204 185.174C147.127 186.749 144.013 187.537 139.859 187.537C137.819 187.537 136.064 187.394 134.596 187.107C133.128 186.857 131.66 186.427 130.193 185.818V179.213C131.768 179.929 133.469 180.52 135.295 180.985C137.12 181.45 138.732 181.683 140.128 181.683C141.703 181.683 142.813 181.45 143.458 180.985C144.138 180.52 144.478 179.911 144.478 179.159C144.478 178.658 144.335 178.21 144.048 177.816C143.798 177.423 143.225 176.975 142.33 176.474C141.435 175.973 140.038 175.328 138.141 174.54C136.315 173.753 134.811 172.983 133.63 172.231C132.448 171.443 131.571 170.513 130.998 169.438C130.425 168.329 130.139 166.95 130.139 165.303C130.139 162.582 131.195 160.541 133.307 159.181C135.42 157.82 138.23 157.14 141.739 157.14C143.565 157.14 145.302 157.319 146.948 157.677C148.595 158.035 150.296 158.626 152.05 159.449L149.634 165.196C148.202 164.587 146.841 164.086 145.552 163.692C144.263 163.262 142.956 163.048 141.632 163.048C139.269 163.048 138.087 163.692 138.087 164.981C138.087 165.446 138.23 165.876 138.517 166.27C138.839 166.628 139.43 167.022 140.289 167.451C141.184 167.881 142.491 168.454 144.21 169.17C145.892 169.85 147.342 170.566 148.56 171.318C149.777 172.034 150.708 172.947 151.352 174.057C152.033 175.131 152.373 176.545 152.373 178.3ZM170.529 187.537C166.161 187.537 162.777 186.338 160.378 183.939C158.015 181.504 156.834 177.691 156.834 172.5C156.834 168.919 157.443 166.001 158.66 163.746C159.877 161.49 161.56 159.825 163.708 158.751C165.892 157.677 168.398 157.14 171.227 157.14C173.232 157.14 174.968 157.337 176.436 157.731C177.94 158.125 179.247 158.59 180.357 159.127L177.994 165.303C176.741 164.802 175.559 164.39 174.449 164.068C173.375 163.746 172.301 163.585 171.227 163.585C167.074 163.585 164.997 166.538 164.997 172.446C164.997 175.382 165.534 177.548 166.608 178.944C167.718 180.341 169.258 181.039 171.227 181.039C172.91 181.039 174.395 180.824 175.684 180.394C176.973 179.929 178.226 179.302 179.444 178.515V185.335C178.226 186.123 176.937 186.678 175.577 187C174.252 187.358 172.569 187.537 170.529 187.537ZM198.223 157.086C202.161 157.086 205.169 157.946 207.245 159.664C209.358 161.347 210.414 163.943 210.414 167.451V187H204.829L203.271 183.026H203.056C201.803 184.601 200.478 185.747 199.082 186.463C197.686 187.179 195.77 187.537 193.336 187.537C190.722 187.537 188.556 186.785 186.837 185.281C185.119 183.742 184.26 181.397 184.26 178.246C184.26 175.131 185.352 172.84 187.536 171.372C189.72 169.868 192.996 169.045 197.364 168.901L202.466 168.74V167.451C202.466 165.912 202.054 164.784 201.23 164.068C200.443 163.352 199.333 162.994 197.901 162.994C196.468 162.994 195.072 163.209 193.712 163.638C192.351 164.032 190.991 164.533 189.63 165.142L186.999 159.718C188.574 158.894 190.31 158.25 192.208 157.785C194.141 157.319 196.146 157.086 198.223 157.086ZM202.466 173.413L199.351 173.52C196.773 173.592 194.983 174.057 193.98 174.916C192.978 175.776 192.476 176.903 192.476 178.3C192.476 179.517 192.834 180.394 193.551 180.931C194.267 181.433 195.197 181.683 196.343 181.683C198.062 181.683 199.512 181.182 200.693 180.179C201.875 179.141 202.466 177.691 202.466 175.829V173.413ZM226.607 187H218.605V146.184H226.607V187ZM247.052 157.14C251.097 157.14 254.302 158.304 256.665 160.631C259.028 162.922 260.209 166.198 260.209 170.459V174.326H241.305C241.377 176.581 242.039 178.354 243.292 179.642C244.581 180.931 246.353 181.576 248.609 181.576C250.507 181.576 252.225 181.397 253.765 181.039C255.304 180.645 256.897 180.054 258.544 179.266V185.443C257.112 186.159 255.591 186.678 253.979 187C252.404 187.358 250.489 187.537 248.233 187.537C245.297 187.537 242.701 187 240.446 185.926C238.19 184.816 236.418 183.151 235.129 180.931C233.84 178.712 233.196 175.919 233.196 172.553C233.196 169.116 233.768 166.27 234.914 164.014C236.096 161.723 237.725 160.004 239.801 158.859C241.878 157.713 244.295 157.14 247.052 157.14ZM247.105 162.833C245.566 162.833 244.277 163.334 243.238 164.337C242.236 165.339 241.645 166.896 241.466 169.009H252.691C252.655 167.219 252.189 165.751 251.294 164.605C250.399 163.424 249.003 162.833 247.105 162.833Z" fill="#353686"/>
</svg>
